<svg xmlns="http://www.w3.org/2000/svg" width="1280" height="150" preserveAspectRatio="none"><path fill="#ffcb05" d="M1296.693 101.692l-10.25 1.535c-5.85.926.804-1.646-5.747-1.232-6.557.414 0 0-6.672 2.81s0 0-1.716-4.646-1.138-1.496-8.3 1.53-1.703.16-7.46 4.216-3.93 1.255-6.797.397l-6.206-1.73s0 0-6.482 4.02 0 0-2.196.375 0 0-5.722-6.997-1.944.152-9.003 1.02-2.402-.352-4.29-1.402-3.563 3.677-6.12 6.68c-2.563 3-11.115 4.763-13.758 9.445s-10.938-4.12-15.34-3.127 0 0-3.992-2.6 0 0-3.553-1.61-1.254.903-3.758 2.706.3-1.187-8.463-.155 0 0-2.808-2.057-2.185.14-7.53.607 0 0-3.182.813c-3.188.81 0 0 1.7-10.492s0 0-11.505 2.823-1.242.66-6.415 2.58 0 0-4.647-14.395-1.92-.332-5.828.447-2.15-.585-4.223-2.842c-2.074-2.263-4.532-1.417-9.407-.684s-1.045 1.632-2.872 4.43-2.493 1.563-5.705 8.14.788-1.404-3.156-4.95c-3.95-3.55-2.976 1.54-6.505 4.5s-1.265 1.14-3.733 2.23c-2.474 1.083.433-4.066-3.514-7.615s-2.208.616-6.36 1.38-3.4.323-6.53-.066c-3.125-.39-5.13.96-10.07 3.132s-5.036 4.087-9.034 6.783-5.267-1.2-8.957.06-3.77 2.946-7.93 3.95-2.36-1.312-4.13.286-3.487-3.046-5.18-3.125-1.7.16-8.978 5.586c-7.272 5.424-.8 1.644-5.883 1.645s0 0-4.753-1.906-2.482 1.325-10.976 6.932-1.952.39-8.53 1.28l-2.44.37c-2.436.366-1.192-.298-1.974-9.465s0 0-14.36 12.057c-14.364 12.063-2.092 3.266-7.657 3.246s0 0-2.437.365-2.225 6.145-6.595 6.42-1.115-1.976-.454-5.788 0 0-12.246-2.02-2.646-.365-7.97-.375-.14-2.17-6.43-2.224 0 0-5.427 2.146 0 0-6.277-.295-3.035 2.742-7.633 2.765-2.136 4.225-6.112 6.44 1.013-.91-4.914-3.595-3.205 1.292-4.676 1.702-5.265 3.838-11.18.917-3.462 1.52-6.942 3.517-7.172 3.268-12.45 2.3-1.392-1.267-4.114.047-15.72-.26-19.78-1.414-4.414 1.234-12.125 5.68 0 0-9.017-3.79-1.9-.572-6.02-5.812 0 0-5.48 3.348-2.252 1.578-5.21-2.408 0 0-5.475-1.938.3-1.43-2.18-5.15-2.724 1.313-6.222-1.495 0 0-6.925-2.007-9.73-4.062-14.457-6.448-2.5-3.48-7.684-6.42-.713-.22-5.186 2.21-2.67.116-2.927-4.702.3-1.187-6.276-.295 0 0-5.818.205-1.898-.81-9.734 1.176c-7.84 1.98 1.014-6.15-5.782-5.747s.553-1.416-3.12-5.676.562-1.653-7.637-2.28-2.085-2.02-7.42-1.79 0 0-2.23-3.952-1.912-.57-9.467.517-.9-1.24-4.048-1.392 0 0-4.9-3.834 0 0-4.223-2.844 0 0-6.682-1.997 0 0-10.59 3.826-8.445-5.682-12.505-6.835 0 0-8.63 3.438 0 0-6.81.642.375-2.866-1.915-5.617-1.987 1.107-7.28-4.663c-5.296-5.778-2.752-3.254-4.133-4.76s0 0-8.296 6.577 0 0-5.964 3.324 0 0-3.86-10.516 0 0-5.96-1.962.928-4.28-5.792-.27c-6.726 4.004-3.143-.147-3.795-1.624s.606-2.614-9.177-.43 0 0-7.62 2.528-1.196-.297-3.753-2.58-1.24.66-8.93 4.628c-7.7 3.962-2.14-.823-2.14-.823s-8.328-3.037-9.558-2.612-6.53-.07-11.514-2.226-1.898-.812-7.39 2.778c-5.494 3.585-1.977.863-4.223-2.845s-.656-1.473-6.085-4.372-2.405-.354-10.76 7.423 0 0-.93-.765-2.165-.344-6.303.184 0 0-2.893 4.91-1.207-.055-5.1-4.804-3.707-3.54-5.833-4.6 0 0-4.106-.193-2.126-1.06-9.338-2.12-3.33 3.927-7.23 4.464-6.09 5.962-7.482 4.697 0 0-4.294 3.88c-4.296 3.884-2.508 1.804-6.786.163s-2.41-5.4-4.036-11.965 0 0-7.88 8.04 0 0-6.958-1.3-1.938-5.136-4.02-7.157-3.853-.422-9.546-2.854c-5.7-2.426-3.06-1.825-8.76 1.032s-1.932-.09-6.67-2.235-9.296 7.25-9.33 7.97-7.1-8.502-8.78-8.82 0 0-7.417-1.79-1.528 1.61-5.313-.25-.347-2.904-4.03-6.918-1.506 1.13-5.207 2.64-3.8 3.665-9.145 9.18.284-.95-8.385-6.967-3.005 2.107-6.56.498-2.843-1.335-9.55 2.355-4.024 3.252-11.673 1.21c-4.71-1.256-3.77-1.703-2.975-1.83.904-.043.48-.08 0 0l-.088.004c-2.668.113-2.837 3.713-9.542 2.194s-3.017-2.785-3.017-2.785-12.505 3.5-16.597 3.063-.815 1.884-7.22 4.226-3.29 2.97-5.196 2.4-2.61-1.08-7.608 2.29-1.474.412-8.787-3.538 0 0-2.04-2.98-2.692.592-11.62 5.22-2.702.834-6.727-1.035c-4.027-1.876 0 0-1.04-3.655s-8.633 3.438-10.6 4.067 0 0-3.05-2.066-16.122-1.96-18.285-2.303 0 0-5.494 3.588-1 .674-7.163-2.02 0 0-5.83.444-2.31 2.778-7.935-1.092-6.2-1.975-10.696-4.106c-4.497-2.136-4.6.022-8.706-.173s-2.264 1.814-7.135 7.593-.815 1.884-4.64.982c-3.832-.9-3.073-1.584-4.71-2.865s0 0-5.413 1.91-1.23.422-3.932 1.257-3.832-.9-7.65-2.04-3.853-.422-5.97-1.723 0 0-4.537 3.87-1.726.64-5.993-1.243-2.648-.365-4.74-2.143c-2.096-1.784-4.116.047-7.037.39s-.427-1.22-7.454-1.07.1-1.918-3.427-4.248 0 0-2.602-1.323-2.083-2.02-6.143-3.173.656 1.472-4.095 9.9 0 0-2.818-1.813 0 0-5.695 7.9-4.147 5.814-10.48 6.716-.302-3.858-8.255-9.76-.318 1.67-5.02 3.85-1.228.423-2.6-1.083-.427-1.223-6.325.662 0 0-7.042-4.654c-1.347-.894-2.23-1.502-2.794-1.915.172-.118.324-.175.47-.118.576.22-2.86-1.63-.47.118-.67.46-1.68 2.194-4.125 4.953-3.066 3.458-3.12-5.673-6.046-10.378-.522-.84-1.202-1.488-1.963-2.01L2.654-71.514l1299.316 61.14-5.277 112.068z"/></svg>