<?xml version="1.0" standalone="no"?>
<!DOCTYPE svg PUBLIC "-//W3C//DTD SVG 20010904//EN"
 "http://www.w3.org/TR/2001/REC-SVG-20010904/DTD/svg10.dtd">
<svg version="1.0" xmlns="http://www.w3.org/2000/svg"
 width="900.000000pt" height="900.000000pt" viewBox="0 0 900.000000 900.000000"
 preserveAspectRatio="xMidYMid meet">
<metadata>
Created by potrace 1.11, written by Peter Selinger 2001-2013
</metadata>
<g transform="translate(0.000000,900.000000) scale(0.100000,-0.100000)"
fill="#000000" stroke="none">
<path d="M3101 8891 c-24 -4 -57 -7 -72 -7 -16 1 -29 -2 -29 -6 0 -3 -8 -5
-17 -4 -10 2 -33 -1 -53 -5 -19 -4 -53 -10 -75 -13 -22 -3 -51 -8 -65 -11
-161 -33 -153 -31 -217 -49 -29 -8 -53 -12 -53 -9 0 3 -6 1 -12 -5 -7 -6 -16
-11 -21 -11 -4 0 -17 -3 -30 -6 -13 -4 -30 -8 -38 -9 -8 -2 -21 -6 -29 -9 -8
-3 -44 -15 -80 -27 -36 -11 -74 -24 -85 -29 -29 -13 -89 -36 -95 -36 -3 0 -15
-6 -26 -13 -12 -6 -24 -8 -28 -5 -3 3 -6 1 -6 -5 0 -7 -6 -12 -14 -12 -22 0
-224 -103 -341 -174 -141 -85 -149 -90 -155 -96 -3 -3 -27 -21 -53 -40 -27
-19 -59 -44 -72 -55 -13 -11 -43 -36 -67 -55 -44 -35 -239 -229 -270 -268 -16
-20 -16 -21 2 -27 11 -4 32 -8 46 -11 15 -3 35 -9 46 -15 10 -5 18 -8 18 -5 0
3 24 -3 53 -13 28 -10 54 -18 57 -19 31 -2 228 -66 315 -102 11 -5 67 -26 125
-48 58 -22 114 -43 125 -47 11 -5 22 -9 25 -10 16 -6 48 -18 65 -26 11 -4 45
-18 75 -30 30 -11 69 -26 85 -34 17 -7 46 -19 65 -28 19 -8 58 -25 85 -38 28
-13 52 -23 55 -24 3 0 11 -4 18 -8 6 -5 15 -6 20 -3 4 2 7 113 7 246 0 132 2
245 5 250 3 6 23 1 45 -9 41 -19 73 -32 90 -37 17 -4 287 -115 343 -140 29
-13 55 -24 58 -24 5 0 25 -9 204 -90 58 -26 132 -60 165 -75 69 -31 485 -236
530 -261 17 -9 37 -20 45 -25 124 -63 318 -169 380 -208 14 -8 27 -16 30 -16
3 -1 21 -11 40 -23 19 -12 47 -28 63 -35 15 -6 27 -15 27 -19 0 -5 4 -8 9 -8
9 0 205 -116 298 -176 28 -19 54 -34 58 -34 3 0 11 -5 18 -10 7 -6 129 -88
272 -182 143 -94 264 -175 270 -180 5 -4 35 -26 65 -47 30 -21 63 -46 73 -55
9 -9 20 -16 25 -16 4 0 18 -9 32 -20 14 -11 52 -40 85 -65 33 -24 65 -48 70
-52 6 -5 46 -35 90 -68 86 -64 305 -236 369 -288 21 -18 50 -42 65 -54 33 -27
172 -145 187 -158 6 -5 35 -30 65 -55 29 -25 63 -54 75 -65 12 -11 45 -40 74
-65 28 -25 68 -60 88 -78 20 -19 70 -64 111 -100 102 -92 417 -407 581 -581
74 -79 162 -171 195 -206 33 -34 116 -122 185 -195 69 -73 134 -143 145 -155
11 -12 36 -41 55 -65 19 -25 42 -52 50 -60 8 -8 33 -37 55 -65 22 -27 47 -56
55 -65 8 -9 29 -33 45 -54 17 -21 37 -46 45 -56 32 -39 48 -58 119 -150 41
-52 77 -97 81 -100 3 -3 17 -21 30 -40 13 -19 27 -37 30 -40 3 -3 26 -33 51
-68 35 -46 49 -59 56 -50 11 13 120 341 127 381 3 12 5 23 7 25 1 1 2 5 3 10
1 4 12 50 25 102 29 120 26 107 36 165 5 28 10 52 10 55 2 8 19 111 29 175 4
28 13 105 22 205 4 42 5 454 1 528 -1 17 -4 32 -7 32 -3 0 -5 16 -4 36 1 20
-2 55 -6 77 -5 23 -11 65 -14 92 -3 28 -8 61 -11 75 -4 14 -8 36 -11 50 -2 14
-10 50 -16 80 -6 30 -12 60 -14 65 -1 6 -7 30 -15 55 -7 25 -14 54 -16 65 -3
11 -6 25 -7 30 -3 13 -36 116 -43 135 -4 8 -7 17 -8 20 -10 39 -59 168 -86
227 -10 24 -19 45 -19 48 0 11 -118 247 -162 324 -26 46 -48 86 -48 87 0 9
-171 266 -190 286 -11 12 -22 30 -26 40 -3 10 -10 18 -15 18 -5 0 -9 5 -9 11
0 6 -6 16 -12 23 -7 7 -26 30 -43 51 -16 21 -55 68 -85 104 -30 36 -61 74 -70
85 -56 69 -244 259 -355 361 -141 128 -160 145 -230 200 -27 22 -61 50 -75 63
-14 12 -43 35 -65 50 -22 15 -42 30 -45 33 -21 25 -509 349 -525 349 -3 0 -22
11 -43 23 -100 63 -436 237 -458 237 -8 0 -14 5 -14 10 0 6 -4 10 -10 10 -5 0
-33 11 -62 24 -98 45 -263 113 -358 149 -52 19 -104 38 -115 43 -11 4 -23 8
-27 9 -5 2 -10 4 -13 5 -3 1 -9 4 -15 5 -5 1 -12 4 -15 5 -3 1 -8 3 -12 5 -5
1 -15 4 -23 8 -8 3 -33 11 -55 17 -22 6 -47 14 -55 17 -8 4 -17 7 -20 8 -11 3
-95 29 -100 30 -3 1 -25 7 -50 14 -25 7 -50 14 -57 15 -7 1 -16 5 -19 9 -4 4
-20 7 -35 7 -15 0 -31 5 -34 10 -4 6 -10 8 -15 5 -5 -3 -18 -2 -27 4 -10 5
-31 12 -48 15 -31 6 -204 43 -240 52 -11 3 -33 7 -48 9 -27 4 -110 20 -153 29
-12 2 -45 7 -75 11 -30 3 -61 8 -70 11 -9 2 -39 7 -65 10 -27 2 -65 7 -84 10
-57 9 -1051 13 -1099 5z"/>
<path d="M533 6797 c-4 -7 -8 -16 -9 -22 -10 -53 -17 -84 -39 -170 -31 -118
-28 -108 -54 -226 -24 -112 -31 -146 -36 -179 -2 -14 -6 -41 -10 -60 -4 -19
-8 -46 -10 -60 -2 -14 -6 -36 -9 -50 -2 -14 -7 -45 -10 -70 -4 -25 -9 -63 -12
-85 -3 -22 -6 -60 -7 -85 -2 -52 -21 -46 173 -54 69 -3 148 -8 175 -11 28 -3
75 -7 105 -9 30 -3 96 -8 145 -12 50 -4 111 -8 137 -8 27 -1 48 -3 48 -6 0 -3
21 -6 48 -6 65 -2 213 -14 238 -19 11 -3 52 -7 90 -10 38 -3 76 -8 84 -10 16
-5 87 -15 135 -20 29 -2 110 -14 150 -21 11 -2 63 -11 115 -20 52 -8 105 -17
118 -20 12 -2 34 -6 50 -9 15 -3 50 -10 78 -16 28 -5 61 -12 75 -14 27 -5 111
-22 148 -31 139 -30 179 -40 242 -54 26 -6 53 -13 60 -14 8 -2 21 -5 29 -8 8
-3 69 -20 135 -37 66 -18 127 -35 135 -38 8 -3 24 -8 35 -10 18 -3 50 -13 100
-33 36 -14 180 -60 187 -60 4 0 5 10 3 23 -5 26 -19 391 -16 409 1 4 13 3 29
-2 15 -5 86 -27 157 -50 72 -22 137 -43 145 -47 8 -3 20 -7 25 -9 21 -5 184
-64 257 -92 42 -16 79 -27 82 -24 3 3 6 0 6 -6 0 -7 6 -12 14 -12 8 0 94 -33
193 -74 163 -68 212 -89 358 -156 28 -12 50 -22 50 -21 0 4 436 -217 450 -229
8 -7 15 -10 15 -7 0 3 37 -15 83 -41 45 -26 96 -54 112 -62 17 -8 32 -17 35
-20 3 -3 21 -14 40 -24 19 -10 92 -53 163 -95 70 -42 135 -80 145 -86 57 -32
210 -131 228 -147 11 -10 23 -18 27 -18 14 0 430 -288 435 -302 2 -4 8 -8 13
-8 10 0 132 -91 137 -102 2 -5 8 -8 14 -8 5 0 16 -6 23 -12 17 -16 17 -16 130
-103 50 -38 92 -73 93 -77 2 -4 7 -8 12 -8 9 0 41 -26 91 -73 16 -15 34 -27
39 -27 4 0 10 -3 12 -7 2 -5 19 -21 38 -37 19 -16 73 -63 119 -105 47 -42 94
-85 107 -96 12 -11 62 -57 110 -101 86 -79 167 -152 205 -185 150 -130 426
-400 601 -587 42 -45 80 -82 85 -82 4 0 16 17 26 38 9 20 26 52 37 70 44 72
210 414 210 431 0 3 9 23 20 43 l20 38 -33 37 c-17 20 -52 59 -77 86 -25 27
-58 63 -73 81 -169 186 -580 579 -777 745 -30 25 -65 56 -77 68 -12 13 -25 23
-28 23 -3 0 -16 10 -29 23 -13 12 -40 36 -62 52 -21 17 -46 38 -56 47 -10 10
-20 18 -23 18 -3 0 -14 8 -25 17 -51 46 -69 61 -125 102 -33 25 -62 48 -65 51
-3 4 -50 40 -105 80 -55 41 -102 77 -105 80 -3 4 -52 40 -110 80 -58 41 -107
77 -110 80 -3 4 -27 22 -55 40 -27 19 -51 37 -53 42 -2 4 -7 8 -12 8 -8 0
-141 87 -167 110 -7 5 -15 10 -18 10 -3 0 -11 5 -18 11 -18 15 -261 174 -315
206 -26 15 -51 31 -57 35 -13 11 -227 142 -246 151 -8 4 -30 17 -50 30 -137
86 -566 325 -795 443 -93 48 -173 91 -179 95 -5 5 -17 9 -26 9 -10 0 -19 4
-21 8 -1 4 -48 30 -103 56 -131 64 -338 162 -347 165 -4 1 -34 15 -65 30 -32
16 -76 36 -98 46 -22 10 -58 26 -80 36 -141 64 -265 116 -265 112 0 -3 -7 1
-16 8 -9 7 -23 14 -31 15 -8 1 -33 11 -56 22 -23 11 -60 25 -82 33 -22 7 -48
20 -59 29 -10 8 -21 14 -25 14 -8 -2 -19 2 -136 46 -55 21 -122 46 -150 55
-27 10 -55 22 -61 27 -17 12 -22 -9 -22 -83 -1 -35 -1 -153 -1 -261 l-1 -198
-27 10 c-16 6 -37 14 -48 19 -20 10 -199 72 -315 111 -36 12 -74 25 -85 30
-11 5 -29 11 -40 13 -11 3 -103 30 -205 61 -102 31 -203 61 -225 67 -22 6 -51
15 -65 19 -14 5 -38 12 -55 16 -16 4 -34 8 -40 10 -21 6 -251 66 -265 69 -8 2
-98 22 -200 45 -102 23 -196 44 -210 46 -14 3 -59 12 -100 20 -41 9 -88 18
-105 21 -16 2 -41 6 -55 9 -35 7 -70 13 -105 19 -16 3 -41 7 -55 10 -49 10
-175 28 -202 29 -10 0 -18 3 -18 6 0 11 -100 8 -107 -3z"/>
<path d="M4025 4714 c5 -27 17 -93 20 -104 0 -3 5 -27 10 -55 4 -27 10 -57 11
-65 2 -8 6 -28 8 -45 3 -16 8 -43 11 -60 53 -273 53 -255 4 -239 -20 7 -70 22
-110 33 -41 11 -94 26 -119 34 -25 7 -54 13 -63 11 -9 -1 -17 2 -17 7 0 5 -3
8 -7 7 -5 -1 -33 4 -63 10 -30 7 -65 14 -77 17 -13 3 -32 7 -43 10 -41 10 -66
16 -100 21 -19 3 -38 8 -41 10 -3 2 -21 6 -40 9 -19 3 -47 8 -64 12 -16 4 -34
7 -40 8 -5 0 -30 4 -55 9 -25 4 -56 9 -70 12 -14 2 -36 6 -50 9 -14 3 -43 7
-65 10 -22 3 -51 7 -65 9 -45 8 -94 15 -155 21 -33 4 -73 8 -90 11 -30 4 -85
10 -180 19 -27 3 -72 7 -100 10 -119 12 -324 18 -665 18 -458 1 -680 -9 -1120
-49 -36 -3 -81 -7 -100 -9 -139 -12 -221 -22 -227 -29 -1 -1 7 -51 17 -112 11
-60 23 -125 26 -144 3 -19 14 -71 25 -115 11 -44 21 -90 24 -102 7 -32 17 -70
40 -158 8 -33 20 -71 25 -85 5 -14 11 -34 13 -45 2 -11 7 -29 11 -40 4 -11 11
-29 15 -40 4 -11 23 -65 41 -120 19 -55 51 -143 71 -195 33 -83 41 -95 61 -94
32 1 94 11 153 24 28 7 65 14 84 16 19 3 38 7 42 10 5 3 32 7 61 10 28 3 56 8
60 10 5 3 23 7 41 10 18 2 55 8 82 13 68 14 124 23 160 26 17 1 53 5 80 9 64
8 189 21 300 31 321 29 798 34 1082 12 12 -1 23 0 24 3 1 7 -11 57 -32 130
-10 36 -20 76 -23 90 -2 14 -5 25 -6 25 -2 0 -5 14 -14 53 -3 12 -7 26 -10 31
-3 5 -8 25 -12 46 l-6 37 204 -6 c191 -5 294 -11 398 -21 25 -3 72 -7 105 -9
33 -2 96 -9 140 -15 44 -6 98 -13 120 -16 22 -3 51 -7 65 -10 14 -3 45 -7 70
-10 56 -7 96 -13 135 -22 17 -3 37 -7 45 -8 8 -1 29 -5 45 -8 17 -4 44 -9 60
-12 17 -3 41 -7 55 -10 14 -3 36 -8 50 -11 13 -3 63 -14 110 -25 81 -20 96
-23 148 -33 12 -3 26 -7 30 -10 5 -3 19 -7 33 -10 13 -2 49 -11 79 -20 30 -8
66 -18 80 -22 14 -3 77 -22 140 -42 63 -20 120 -36 125 -37 6 -1 17 -4 25 -8
8 -4 69 -25 135 -47 66 -23 127 -44 135 -47 8 -3 17 -7 20 -8 3 -1 18 -7 33
-13 16 -7 31 -12 34 -12 21 0 466 -190 576 -246 26 -13 47 -21 47 -17 0 5 4 4
8 -2 4 -5 87 -50 186 -100 98 -49 193 -99 210 -110 17 -10 33 -19 36 -20 7 -1
86 -47 194 -111 48 -30 90 -54 92 -54 8 0 235 -147 287 -186 31 -24 62 -44 67
-44 6 0 10 -4 10 -8 0 -4 12 -15 28 -24 15 -9 37 -25 49 -35 11 -10 31 -25 43
-33 22 -15 156 -112 175 -127 51 -40 125 -93 130 -93 3 0 13 -7 23 -16 9 -8
59 -47 111 -85 l94 -69 18 23 c10 12 23 27 29 34 5 7 10 15 10 18 0 3 9 16 20
27 37 41 300 441 300 457 0 5 5 11 12 13 14 5 -2 21 -87 93 -33 28 -62 52 -65
55 -15 16 -238 196 -310 251 -47 35 -89 68 -95 72 -73 58 -197 147 -204 147
-5 0 -11 4 -13 8 -1 5 -25 23 -53 42 -27 18 -53 38 -57 44 -4 6 -8 7 -8 3 0
-4 -12 4 -27 18 -15 14 -31 25 -34 25 -3 0 -69 42 -145 93 -76 51 -193 126
-259 166 -66 41 -131 81 -145 91 -14 9 -45 28 -70 42 -25 14 -120 68 -211 121
-91 52 -210 118 -265 147 -54 29 -105 57 -111 62 -7 6 -13 7 -13 2 0 -5 -4 -4
-8 2 -8 12 -492 254 -507 254 -6 0 -17 6 -23 13 -7 6 -16 12 -20 12 -4 0 -27
10 -52 22 -50 24 -142 66 -150 67 -3 1 -25 11 -50 23 -25 12 -61 28 -80 36
-111 47 -308 130 -325 137 -11 4 -31 12 -45 18 -14 6 -50 21 -80 32 -56 22
-82 33 -122 49 -89 36 -184 71 -191 71 -5 0 -23 6 -40 14 -18 8 -41 16 -52 19
-24 7 -134 45 -155 54 -8 3 -19 7 -25 9 -57 17 -54 18 -50 -12z"/>
<path d="M3514 2878 c3 -21 8 -43 11 -49 4 -5 8 -17 10 -26 3 -16 18 -80 29
-123 3 -8 9 -27 15 -42 6 -16 9 -28 6 -28 -2 0 5 -30 16 -67 10 -37 18 -68 16
-69 -1 -1 -85 -5 -187 -8 -190 -7 -273 -11 -370 -21 -30 -3 -62 -6 -70 -6 -8
0 -49 -5 -91 -10 -42 -5 -98 -12 -125 -15 -27 -2 -60 -6 -74 -9 -46 -7 -125
-18 -140 -20 -9 0 -21 -4 -28 -9 -6 -4 -15 -5 -20 -2 -6 3 -142 -22 -267 -50
-11 -2 -33 -7 -50 -10 -16 -3 -66 -14 -110 -25 -44 -10 -89 -21 -100 -24 -11
-2 -47 -12 -80 -21 -33 -9 -67 -17 -75 -19 -8 -2 -27 -8 -43 -14 -15 -6 -39
-13 -53 -15 -28 -5 -283 -88 -329 -107 -16 -7 -38 -14 -49 -16 -49 -9 -48 -17
5 -89 28 -38 61 -81 73 -95 11 -14 37 -45 56 -69 101 -125 191 -222 359 -388
102 -101 195 -192 206 -202 38 -33 212 -175 234 -190 12 -8 36 -27 54 -42 17
-16 37 -28 44 -28 7 0 13 -4 13 -9 0 -9 255 -182 320 -217 19 -10 37 -22 40
-25 5 -6 78 -46 210 -116 93 -50 351 -166 405 -183 22 -7 45 -16 50 -20 6 -3
30 -13 55 -20 25 -7 51 -18 58 -23 6 -5 12 -7 12 -4 0 3 27 -5 60 -18 33 -13
57 -18 53 -12 -5 9 -3 9 8 0 8 -7 40 -19 70 -27 30 -8 71 -20 92 -26 20 -6 42
-8 47 -5 6 3 10 2 10 -3 0 -5 6 -9 13 -9 6 0 23 -3 37 -6 14 -4 39 -9 55 -12
17 -3 50 -10 75 -15 25 -5 61 -12 80 -15 19 -2 46 -7 60 -9 14 -2 50 -7 80
-11 51 -6 85 -8 240 -20 66 -5 294 -6 370 -1 91 6 213 16 245 21 17 3 46 7 65
10 19 2 49 7 65 11 17 3 39 7 50 9 60 9 104 19 192 41 54 13 107 26 117 29
140 33 430 146 606 235 169 85 185 93 190 99 3 3 25 17 50 30 46 24 301 190
310 201 3 3 21 17 40 30 19 13 37 27 40 30 3 3 23 19 45 36 43 31 87 68 117
96 10 10 20 18 23 18 16 0 388 367 486 479 35 41 72 83 82 93 9 10 15 18 12
18 -3 0 6 12 19 28 60 67 76 88 76 98 0 15 -91 76 -132 90 -10 4 -18 10 -18
15 0 5 -5 9 -10 9 -6 0 -27 11 -48 23 -36 23 -65 40 -197 113 -56 32 -295 150
-375 187 -137 63 -240 105 -240 99 0 -4 -4 -2 -8 3 -4 6 -29 18 -57 29 -27 10
-72 27 -100 38 -84 32 -159 59 -175 63 -8 2 -16 4 -17 5 -2 2 -6 3 -10 4 -5 1
-12 4 -18 7 -5 3 -44 16 -85 28 -41 13 -84 27 -95 31 -36 16 -332 101 -395
115 -8 2 -51 13 -95 25 -68 18 -305 71 -385 86 -14 2 -36 7 -50 10 -28 7 -48
10 -104 18 -21 4 -41 8 -45 10 -3 2 -30 7 -60 10 -29 4 -57 9 -61 11 -4 3 -32
7 -61 10 -30 2 -65 7 -79 9 -35 7 -87 14 -145 21 -27 3 -61 8 -75 10 -42 8
-132 17 -190 20 -30 2 -55 4 -55 5 0 3 -207 19 -320 26 -44 2 -178 6 -298 8
l-218 4 5 -40z"/>
</g>
</svg>
