<svg xmlns="http://www.w3.org/2000/svg" width="1280" height="150" preserveAspectRatio="none"><path fill="#fff" d="M1298.574 154.67l-12.102-126.155-.388-.012-1.26-13.147-2.895.277-8.44 2.743-5.413 1.56c-3.765 1.105-5.725.846-6.397 1.357-.677.512-.366 1.225-1.013 2.03l-.65.806s3.327 4.44-4.438 1.616l-11.008-3.85s4.858.276-1.72-.282c-6.585-.56-10.91-.293-10.91-.293l-4.157 2.035s5.666 3.62-3.3.912-2.537-1.245-10.43-2.867l-10.106-2.005s-2.59 3.223-4.113 2.477-6.68-4.118-7.934-4.594-3.092-4.463-3.555-1.74-3.113.3-3.113.3l-4.496-1.503-7.908.76-2.692-2.864-6.72 5.552-4.95-3.69s-4.06-1.472-5.18-1.605c-.05-.106-.146-.236-.333-.394-.788-.668-6.47-4.436-6.47-4.436l-5.752-1.977-6.66 11.196-3.892 2.308s-3.158-2.67-3.596-2.183-2.815 3.392-2.815 3.392l-.902 3.204-3.746 3.785c-1.045-.792-8.1 3.897-8.1 3.897l.72 7.515s-4.018-6.604-4.808-2.216-1.308 11.576-1.73 9.684-7.98-7.563-8.612-6.6c-.638.953 1.17 4.646-4.157 2.035s-4.723-3.86-7.54-2.995-.62 3.63-4.708 1.344l-4.088-2.284s-.606-3.808-3.72-.982-4.808 5.37-7.092 4.25-3.354-2.207-4.536-1.943-3.282 1.057-4.48 1.17-1.61.9-4.37-.174-2.793-1.368-3.975-1.106-1.705 4.922-5.13 1.98 1.313-1.467-3.427-2.943-4.962-1.3-7.666-1.795-4.593-2.505-5.397-.807c-.52 1.098-1.022 3.43-1.82 4.4l-.275-.027c-.563-.047-1.007-.062-1.373-.057-1.865-2.034-.697-2.295-3.396-2.78-2.707-.483-1.186.264-5.512-2s-3.438-3.09-7.654-4.173-4.71-1.185-5.65-.944-2.86.422-2.86.422.93 2.142-3.606.198l-10.092-4.387s3.68 5.596.45 4.717-2.327-1.563-5.61-3.03-3.285-1.47-7.978-2.508-4.385-2.852-6.385-1.023-3.538 3.464-5.087 2.423-2.793-1.37-2.793-1.37-5.7.994-5.756.405-2.934-5.37-2.934-5.37-.575 1.544-1.775 1.657-2.8 3.688-4.776.608-6.415-6.374-7.05-5.42 3.822 4.538-3.536 3.46-10.527-3.868-12.53-2.055-2.013 4.194-5.453 3.632-6.233-1.932-5.935-1.364.492 2.628-3.495 1.375-.76-.372-4.875 2.104-1.228 2.35-5.3 2.738-3.015 3.858-6.935.815-5.92-3.745-5.92-3.745-.1 1.497-4.567.29-3.228-3.398-5.723-1.676-3.58 3.014-5.82 2.337-5.31.098-6.207-1.694-.67.57-2.757 1.513-4.958 3.747-5.763 2.933 1.367-.874-.804-.815c-.823.023-1.706.5-2.468 1.036l-1.504.387c-9.205 2.37-7.85 3.876-12.528 2.985s-7.09-.807-7.09-.807-2.03-.995-6.44-1.613-2.974 4.3-8.428 2.9-1.958-.26-7.02-2.6-5.64-3.325-6.5-2.202-1.03 1.837-5.31.114-3.28-1.42-6.71.643-6.528 2.5-6.47 5.627-4.922-5.923-5.216 1.095-2.057 8.822-2.057 8.822.777.52-3.297.9-2.212-.383-6.075 2.218-1.915 2.712-5.75 3.08-4.75-1.626-7.598-1.056-3.042 6.09-6.17 6.243-.184.61-4.85-.13-2.58-1.688-6.3-.14l-7.667 3.243c-1.634.623-3.8-1.698-5.904 1.477-.336.506-.635.92-.91 1.27l-1.263-.114c-2.373-.215-3.2.047-3.395.52-1.23-.933-1.07-1.92-3.042-.703-2.284 1.408-5.398 1.707-5.835 2.195s.127 3.854-3.93 1.864-1.554-6.097-4.963-1.308-3.227 4.175-7.847 6.403.057 3.116-9.16 2.81-8.585-6.313-12.178-.914.64 11.688-6.595 9.405-4.004-3.93-9.457-2.8-4.706 1.343-8.032 1.96-3.188-.437-7.33 1.745a75.48 75.48 0 0 1-4.594 2.22c-8.43-1.52.075.02-6.662.073l-.666.013a18.63 18.63 0 0 0-1.637.035c-4.566.288.38-6.133-4.566.288s-4.605 9.96-7.284 7.242-.058-3.12-3.483-3.533-2.833-1.81-6.115-.75c-1.758.565-2.188 1.3-3.096 1.835l-.477-.13c-3.46-.962-2.904-.804-2.552.816-.47.02-.993.023-1.612.004-5.82-.187-5.724-1.682-9.6.77s-8.427 2.892-8.427 2.892l-7.104-.955-10.417 2.336c-.958.093-1.396 3.107-7.82 1.643s-4.3-4.494-6.427-1.466c-1.103 1.572.727 2.54 1.52 3 .053.08.166.18.315.284-.152.09-1.163 0-3.96-.253-8.782-.795-1.918-4.873-8.782-.795s-.675 3.04-6.863 4.08c-5.49.922-1.123 1.483-6.524 1.178l-.5-.18c-3.544-1.195-3.34-1.014-3.333-.084-7.893-.777-7.203-3.405-9.91-.46-2.847 3.1 2.08 6.545-4.773 3.162s-1.836-4.014-8.276-3.1c-1.712.243-2.895.572-3.81.9-.17-.32-.447-.696-.92-1.155-2.525-2.446-1.596-.59-3.72 2.01-.513-.123-1.103-.313-1.84-.608-4.778-1.922-6.683-4.12-8.753-3.027s4.597 7.6-5.62 1.877-8.77-5.7-10.22-5.71-2.452-.36-3.68-.54-.8-.668-4.482-1.354c-3.146-.585-5.72 1.037-6.417 1.532-.015-.21-.46-.725-2.576-2-3.596-2.184-4.592-2.532-5.553-2.44s-.043-2.97-4.2 1.593-4.027 10.942-8.3 9.272-6.287-2.52-7.457-2.112-2.748 1.604-5.988 3.104-1.085-1.23-6.82 1.994-5.354 7.205-9.173 5.192.366-3.754-3.82-2.015-6.598 1.822-8.838 3.674-.183 3.14-5.073 2.568-4.58 2.668-8.102 3.75-7.095 1.668-9.712 2.096-4.253 3.557-5.453 3.67c-1.013.097-2.488-.933-6.07-2.12-.985-.702-2.233-1.573-4.165-2.672-3.056-1.737-2.54-1.313-3.098.164-.602.108-1.442.5-2.946 1.282-4.006 2.11-4.353 4.37-7.362 3.848-.03-.412-.23-.683-1.277-.33-.302-.102-.624-.22-.973-.364-5.284-2.17-4.284-1.82-7.596-3.584s-.38-1.45-5.526-2.146-5.525.383-7.877 1.054.72 4.987-6.695.79-7.558-8.196-9.782-3.67-2.76 6.5-4.72 6.252-4.438-.914-6.667-1.442.762 2.9-6.285.008-9.488-5.633-10.122-4.678 8.234 5.158-.632.95-7.515-5.228-10.08-4.237.226 4.887-3.708 1.693-5.637-8.383-7.54-5.52.368 6.358-7.525 4.735-9.922-2.614-12.924-1.14c-3.003 1.48-8.118 3.604-9.866 3.027s-1.073-3.613-6.33-.435-4.537 5.642-7.68 5.646-3.24 1.5-6.16 1.334-3.48-1.004-3.48-1.004 1.198 2.414-3.467 1.67-2.424-.065-5.567-.06.508-2.28-3.143.003-5.946 6.072-8.723 4.853.507-2.28-4.144-.348-2.083 8.528-10.5 3.98-2.947-5.516-9.91-4.997-11.347-2.332-15-.195 2.44 5.27-5.808 2.488-6.664-1.44-10.893-2.673-2.79-1.367-6.597-3.23-1.327-3.742-3.933-.666-2.65 2.633-5.003.776.563-1.688-2.354-1.854-3.607.196-6.314-.287-6.867-8.562-8.867-4.205.686 7.152-5.42 6.5-2.358.63-7.333-.826 2.27-5.72-6.172-1.342-6.546 4.875-10.455 4.464-.413-1.785-5.867-.667-3.954 1.652-9.706 2.16-5.8 2.53-8.625.828-2.078-4.008-4.53-1.838-3.296 5.967-6.538 4.938-2.98-.82-6.184-1.446c-2.3-.45-4.562-.572-6.457-.53l1.898 19.806c.125-.062.243-.13.363-.195l12.45 129.78L1298.574 154.67zM1261.916 31.7c-.137.222-.262.407-.38.543-.66-.606-1.14-.812.38-.543zm-417.518-2.354c.077-.184.502-.424 1.06-.674-.773.632-1.245 1.108-1.06.674zm-107.502 30.87c-.027.457-.057.712-.15.828-.042-.388-.022-.666.15-.828zm-144.48 32.014c-.045.28-.1.58-.196.893-.166-.617-.257-.902.196-.893z"/></svg>